<svg width="54" height="54" viewBox="0 0 54 54" fill="none" xmlns="http://www.w3.org/2000/svg">
<rect x="0.333252" y="0.5" width="53.3333" height="53.3333" rx="10.6667" fill="#002337"/>
<path d="M14.472 33.252C13.224 33.252 12.174 32.976 11.322 32.424C10.47 31.86 9.87 31.098 9.522 30.138L11.646 28.896C12.138 30.18 13.104 30.822 14.544 30.822C15.24 30.822 15.75 30.696 16.074 30.444C16.398 30.192 16.56 29.874 16.56 29.49C16.56 29.046 16.362 28.704 15.966 28.464C15.57 28.212 14.862 27.942 13.842 27.654C13.278 27.486 12.798 27.318 12.402 27.15C12.018 26.982 11.628 26.76 11.232 26.484C10.848 26.196 10.554 25.836 10.35 25.404C10.146 24.972 10.044 24.468 10.044 23.892C10.044 22.752 10.446 21.846 11.25 21.174C12.066 20.49 13.044 20.148 14.184 20.148C15.204 20.148 16.098 20.4 16.866 20.904C17.646 21.396 18.252 22.086 18.684 22.974L16.596 24.18C16.092 23.1 15.288 22.56 14.184 22.56C13.668 22.56 13.26 22.68 12.96 22.92C12.672 23.148 12.528 23.448 12.528 23.82C12.528 24.216 12.69 24.54 13.014 24.792C13.35 25.032 13.986 25.296 14.922 25.584C15.306 25.704 15.594 25.8 15.786 25.872C15.99 25.932 16.26 26.034 16.596 26.178C16.944 26.31 17.208 26.436 17.388 26.556C17.58 26.676 17.796 26.838 18.036 27.042C18.276 27.246 18.456 27.456 18.576 27.672C18.708 27.888 18.816 28.152 18.9 28.464C18.996 28.764 19.044 29.094 19.044 29.454C19.044 30.618 18.618 31.542 17.766 32.226C16.926 32.91 15.828 33.252 14.472 33.252ZM23.4048 30.624H28.7508V33H20.2368V31.02L25.4748 22.776H20.3628V20.4H28.6428V22.362L23.4048 30.624Z" fill="white"/>
<path d="M33.0826 11.1726C38.9387 13.669 42.8315 19.7052 42.9999 26.548C43.0061 26.838 42.7948 27.0813 42.5283 27.0913C42.2588 27.0979 42.0382 26.868 42.0291 26.578C41.8729 20.1618 38.222 14.499 32.7273 12.1558C25.2081 8.94941 16.6934 12.9957 13.7439 21.1784C10.7944 29.3611 14.5158 38.627 22.035 41.8367C23.9002 42.6333 25.8512 43 27.8359 42.9333C28.1024 42.9233 28.3291 43.1533 28.3352 43.4433C28.3444 43.7333 28.1331 43.9799 27.8635 43.9866C25.7471 44.0599 23.6644 43.6666 21.6766 42.82C13.6582 39.4003 9.69184 29.5177 12.8343 20.7918C15.9829 12.0692 25.0641 7.75284 33.0826 11.1726Z" fill="url(#paint0_linear_4_398)"/>
<path d="M36.9571 16.6053C37.0183 16.632 37.0796 16.672 37.1286 16.7286C40.8224 20.8716 41.9587 27.0211 40.023 32.3907C37.294 39.9634 29.4164 43.7098 22.4577 40.74C15.499 37.7703 12.0564 29.1976 14.7854 21.6249C16.2157 17.6552 19.1529 14.5555 22.8436 13.1156C23.0979 13.0156 23.3735 13.1589 23.4654 13.4356C23.5542 13.7089 23.4256 14.0122 23.1713 14.1122C19.7441 15.4454 17.0182 18.3252 15.6889 22.0115C13.156 29.041 16.3535 37.0037 22.813 39.7601C29.2725 42.5165 36.5896 39.0368 39.1225 32.0074C40.9204 27.0211 39.8637 21.3116 36.4333 17.4652C36.2465 17.2552 36.2526 16.9219 36.4425 16.7186C36.5834 16.5686 36.7856 16.532 36.9571 16.6053Z" fill="url(#paint1_linear_4_398)"/>
<path d="M31.6369 15.2556C37.5787 17.7887 40.516 25.1115 38.1882 31.5776C36.7824 35.4773 33.6982 38.3571 29.937 39.2737C29.6736 39.337 29.4164 39.157 29.3582 38.8737C29.3 38.5904 29.4653 38.3071 29.7257 38.2438C33.1713 37.4038 35.9983 34.7674 37.2847 31.1943C39.4164 25.2715 36.7242 18.5654 31.2846 16.2422C25.842 13.9224 19.6796 16.8488 17.5449 22.7717C17.4009 23.175 17.2753 23.5883 17.1712 24.0049C17.1008 24.2882 16.8343 24.4549 16.577 24.3782C16.3197 24.3015 16.1635 24.0116 16.234 23.7316C16.3473 23.2783 16.4821 22.825 16.6413 22.3884C18.966 15.9222 25.695 12.7225 31.6369 15.2556Z" fill="url(#paint2_linear_4_398)"/>
<defs>
<linearGradient id="paint0_linear_4_398" x1="11.8169" y1="28.2824" x2="42.994" y2="26.0988" gradientUnits="userSpaceOnUse">
<stop offset="0.0051282" stop-color="white" stop-opacity="0"/>
<stop offset="0.0523" stop-color="#FAF8E1" stop-opacity="0.0474"/>
<stop offset="0.1327" stop-color="#F3EFB5" stop-opacity="0.1282"/>
<stop offset="0.2191" stop-color="#ECE68E" stop-opacity="0.2151"/>
<stop offset="0.3103" stop-color="#E7DE6D" stop-opacity="0.3067"/>
<stop offset="0.4077" stop-color="#E3D852" stop-opacity="0.4047"/>
<stop offset="0.5137" stop-color="#DFD43D" stop-opacity="0.5112"/>
<stop offset="0.6324" stop-color="#DDD12F" stop-opacity="0.6305"/>
<stop offset="0.7741" stop-color="#DBCF26" stop-opacity="0.773"/>
<stop offset="1" stop-color="#DBCE24"/>
</linearGradient>
<linearGradient id="paint1_linear_4_398" x1="13.9128" y1="28.3822" x2="40.9626" y2="26.4876" gradientUnits="userSpaceOnUse">
<stop stop-color="white" stop-opacity="0"/>
<stop offset="0.0038725" stop-color="#FEFEFC" stop-opacity="0.01"/>
<stop offset="0.0636" stop-color="#F7F4CF" stop-opacity="0.0643"/>
<stop offset="0.1274" stop-color="#F1EBA7" stop-opacity="0.1287"/>
<stop offset="0.1973" stop-color="#EBE383" stop-opacity="0.1994"/>
<stop offset="0.2728" stop-color="#E6DD65" stop-opacity="0.2756"/>
<stop offset="0.3556" stop-color="#E2D74D" stop-opacity="0.3593"/>
<stop offset="0.449" stop-color="#DFD33A" stop-opacity="0.4537"/>
<stop offset="0.5588" stop-color="#DDD02D" stop-opacity="0.5646"/>
<stop offset="0.7006" stop-color="#DBCF26" stop-opacity="0.7078"/>
<stop offset="0.9897" stop-color="#DBCE24"/>
</linearGradient>
<linearGradient id="paint2_linear_4_398" x1="16.4981" y1="27.8266" x2="38.9739" y2="26.2523" gradientUnits="userSpaceOnUse">
<stop stop-color="white" stop-opacity="0"/>
<stop offset="0.033" stop-color="#FDFCF1" stop-opacity="0.0333"/>
<stop offset="0.1729" stop-color="#F4F0BB" stop-opacity="0.1747"/>
<stop offset="0.3143" stop-color="#ECE68D" stop-opacity="0.3176"/>
<stop offset="0.4544" stop-color="#E6DD67" stop-opacity="0.4591"/>
<stop offset="0.5928" stop-color="#E1D749" stop-opacity="0.599"/>
<stop offset="0.7292" stop-color="#DED234" stop-opacity="0.7368"/>
<stop offset="0.8627" stop-color="#DCCF28" stop-opacity="0.8716"/>
<stop offset="0.9898" stop-color="#DBCE24"/>
</linearGradient>
</defs>
</svg>
