<svg width="54" height="54" viewBox="0 0 54 54" fill="none" xmlns="http://www.w3.org/2000/svg">
<rect y="0.166687" width="53.3333" height="53.3333" rx="10.6667" fill="#311D05"/>
<path d="M29.3333 28.4999H31.3333V29.4999H29.3333V28.4999ZM33.3333 29.4999H35.3333V28.4999H33.3333V29.4999ZM29.3333 33.4999H31.3333V32.4999H29.3333V33.4999ZM33.3333 33.4999H35.3333V32.4999H33.3333V33.4999ZM29.3333 21.4999H31.3333V20.4999H29.3333V21.4999ZM33.3333 21.4999H35.3333V20.4999H33.3333V21.4999ZM29.3333 25.4999H31.3333V24.4999H29.3333V25.4999ZM33.3333 25.4999H35.3333V24.4999H33.3333V25.4999ZM39.3333 17.9999V39.4999H15.3333V23.8289C15.3333 23.1609 15.5933 22.5329 16.0653 22.0609L18.7723 19.3539C19.8573 18.2689 21.8083 18.2689 22.8933 19.3539L25.3323 21.7929V17.9999C25.3323 16.6219 26.4543 15.4999 27.8323 15.4999H36.8323C38.2103 15.4999 39.3333 16.6219 39.3333 17.9999ZM25.3333 23.8289C25.3333 23.4279 25.1773 23.0519 24.8943 22.7679L22.1873 20.0609C21.4743 19.3479 20.1933 19.3479 19.4803 20.0609L16.7723 22.7679C16.4893 23.0519 16.3333 23.4279 16.3333 23.8289V38.4999H25.3333V23.8289ZM38.3333 17.9999C38.3333 17.1729 37.6603 16.4999 36.8333 16.4999H27.8333C27.0063 16.4999 26.3333 17.1729 26.3333 17.9999V38.4999H38.3333V17.9999ZM19.3333 29.4999H22.3333V28.4999H19.3333V29.4999ZM19.3333 25.4999H22.3333V24.4999H19.3333V25.4999ZM19.3333 33.4999H22.3333V32.4999H19.3333V33.4999Z" fill="#F3BA2F" stroke="#F3BA2F" stroke-width="0.5"/>
</svg>
