<svg width="32" height="32" viewBox="0 0 32 32" fill="none" xmlns="http://www.w3.org/2000/svg">
<path d="M24.9 20.3091L15.6392 15.8337L18.6232 5.87858C18.7167 5.56665 18.5424 5.23738 18.2319 5.13915C17.1059 4.78311 15.9334 4.60254 14.7467 4.60254C8.37979 4.60246 3.19995 9.7823 3.19995 16.1492C3.19995 22.5162 8.37979 27.6961 14.7467 27.6961C16.9721 27.6961 19.1327 27.0614 20.9949 25.8605C22.8076 24.6915 24.2544 23.046 25.1789 21.1019C25.3196 20.8058 25.1951 20.4517 24.9 20.3091ZM20.3488 24.8586C18.6796 25.935 16.7424 26.504 14.7467 26.504C9.03712 26.5039 4.39207 21.8589 4.39207 16.1492C4.39207 10.4397 9.03712 5.79458 14.7467 5.79458C15.6142 5.79458 16.4732 5.90211 17.3079 6.1147L14.3514 15.9781C14.2673 16.2585 14.3994 16.5585 14.6631 16.6859L23.8328 21.1174C23.0036 22.6318 21.8085 23.9173 20.3488 24.8586Z" fill="#A0AEC0"/>
<path d="M27.5951 7.67175C26.1338 5.70881 24.1341 4.28303 21.8121 3.54869C21.6599 3.50069 21.4948 3.51547 21.3535 3.59009C21.2124 3.66472 21.1071 3.79291 21.0613 3.94582L17.9315 14.3877C17.8371 14.703 18.0159 15.0352 18.3313 15.1297C18.6465 15.2243 18.9789 15.0452 19.0734 14.7299L22.0243 4.88529C23.8455 5.58451 25.4679 6.81064 26.6388 8.38361C27.9751 10.1786 28.6814 12.314 28.6814 14.5588C28.6814 15.9094 28.4271 17.2156 27.9246 18.4502L23.251 16.1916C22.9545 16.0483 22.5981 16.1725 22.4549 16.469C22.3117 16.7653 22.4359 17.1217 22.7322 17.265L27.9613 19.792C28.0429 19.8315 28.1317 19.8514 28.2207 19.8514C28.2875 19.8514 28.3544 19.8402 28.4185 19.8176C28.5684 19.7649 28.6908 19.6547 28.759 19.5113C29.4985 17.9562 29.8735 16.2899 29.8735 14.5588C29.8736 12.0556 29.0857 9.67411 27.5951 7.67175Z" fill="#A0AEC0"/>
</svg>
