<svg width="17" height="23" viewBox="0 0 17 23" fill="none" xmlns="http://www.w3.org/2000/svg">
<path d="M16.1114 5.36431L12.0473 1.51934C11.615 1.11037 11.0492 0.885162 10.4541 0.885162H2.71642C1.43815 0.885162 0.398193 1.92512 0.398193 3.20339V20.1475C0.398193 21.4258 1.43815 22.4657 2.71642 22.4657H14.5183C15.7965 22.4657 16.8365 21.4258 16.8365 20.1475V7.04835C16.8365 6.41404 16.5722 5.80022 16.1114 5.36431ZM14.8833 5.9431H11.7364C11.6202 5.9431 11.5257 5.84856 11.5257 5.73236V2.76655L14.8833 5.9431ZM14.5183 21.2012H2.71642C2.13539 21.2012 1.66268 20.7285 1.66268 20.1475V3.20339C1.66268 2.62235 2.13539 2.14965 2.71642 2.14965H10.2612V5.73236C10.2612 6.5458 10.923 7.20759 11.7364 7.20759H15.572V20.1475C15.572 20.7285 15.0993 21.2012 14.5183 21.2012Z" fill="#002337"/>
<path d="M13.1278 9.31509H3.8549C3.50573 9.31509 3.22266 9.59817 3.22266 9.94734C3.22266 10.2965 3.50573 10.5796 3.8549 10.5796H13.1278C13.477 10.5796 13.76 10.2965 13.76 9.94734C13.76 9.59817 13.477 9.31509 13.1278 9.31509Z" fill="#002337"/>
<path d="M13.1278 12.687H3.8549C3.50573 12.687 3.22266 12.9701 3.22266 13.3193C3.22266 13.6685 3.50573 13.9515 3.8549 13.9515H13.1278C13.477 13.9515 13.76 13.6685 13.76 13.3193C13.76 12.9701 13.477 12.687 13.1278 12.687Z" fill="#002337"/>
<path d="M6.92001 16.059H3.8549C3.50573 16.059 3.22266 16.3421 3.22266 16.6912C3.22266 17.0404 3.50573 17.3235 3.8549 17.3235H6.92001C7.26918 17.3235 7.55225 17.0404 7.55225 16.6912C7.55225 16.3421 7.26918 16.059 6.92001 16.059Z" fill="#002337"/>
</svg>
