<svg width="32" height="32" viewBox="0 0 32 32" fill="none" xmlns="http://www.w3.org/2000/svg">
<path d="M21.2941 19.8925C24.1885 15.3507 23.8246 15.9173 23.908 15.7989C24.9618 14.3126 25.5188 12.5632 25.5188 10.7399C25.5188 5.90446 21.5949 1.92114 16.7532 1.92114C11.9272 1.92114 7.98755 5.89659 7.98755 10.7399C7.98755 12.5621 8.5562 14.3572 9.64452 15.8636L12.2122 19.8926C9.46692 20.3145 4.80005 21.5717 4.80005 24.3399C4.80005 25.349 5.45869 26.7871 8.59647 27.9077C10.7874 28.6902 13.6842 29.1211 16.7532 29.1211C22.492 29.1211 28.7063 27.5023 28.7063 24.3399C28.7063 21.5712 24.0449 20.3153 21.2941 19.8925ZM10.9758 14.987C10.967 14.9733 10.9579 14.9599 10.9483 14.9467C10.0427 13.7008 9.5813 12.2243 9.5813 10.7399C9.5813 6.75456 12.7904 3.51489 16.7532 3.51489C20.7077 3.51489 23.925 6.756 23.925 10.7399C23.925 12.2266 23.4724 13.6531 22.6157 14.8662C22.539 14.9674 22.9395 14.3452 16.7532 24.0524L10.9758 14.987ZM16.7532 27.5274C10.4847 27.5274 6.3938 25.6849 6.3938 24.3399C6.3938 23.4359 8.49585 21.9495 13.1538 21.3702L16.0811 25.9635C16.2274 26.1931 16.4809 26.3321 16.7531 26.3321C17.0254 26.3321 17.2788 26.1931 17.4251 25.9635L20.3523 21.3702C25.0104 21.9495 27.1125 23.4359 27.1125 24.3399C27.1125 25.6734 23.0584 27.5274 16.7532 27.5274Z" fill="#A0AEC0"/>
<path d="M16.7532 6.75562C14.5562 6.75562 12.7688 8.54301 12.7688 10.74C12.7688 12.937 14.5562 14.7244 16.7532 14.7244C18.9502 14.7244 20.7375 12.937 20.7375 10.74C20.7375 8.54301 18.9502 6.75562 16.7532 6.75562ZM16.7532 13.1306C15.435 13.1306 14.3625 12.0582 14.3625 10.74C14.3625 9.4218 15.435 8.34937 16.7532 8.34937C18.0714 8.34937 19.1438 9.4218 19.1438 10.74C19.1438 12.0582 18.0714 13.1306 16.7532 13.1306Z" fill="#A0AEC0"/>
</svg>
