<svg width="220" height="41" viewBox="0 0 220 41" fill="none" xmlns="http://www.w3.org/2000/svg">
<g clip-path="url(#clip0_4_309)">
<path d="M20 40.3034C31.046 40.3034 40 31.4361 40 20.4969V6.63238C40 5.05648 39.3679 3.54512 38.2427 2.43079C37.1175 1.31645 35.5913 0.69043 34 0.69043L21 0.69043V9.37954C21 11.3622 21.122 13.4161 22.172 15.1036C22.9237 16.313 23.9293 17.3481 25.1205 18.1388C26.3118 18.9294 27.6608 19.457 29.076 19.6858L29.459 19.7472C29.6169 19.8007 29.754 19.9017 29.8511 20.0361C29.9481 20.1706 30.0003 20.3317 30.0003 20.4969C30.0003 20.6622 29.9481 20.8233 29.8511 20.9577C29.754 21.0921 29.6169 21.1932 29.459 21.2466L29.076 21.308C27.0082 21.6425 25.0987 22.6118 23.6172 24.079C22.1356 25.5463 21.1568 27.4373 20.819 29.4851L20.757 29.8644C20.7031 30.0208 20.6011 30.1565 20.4653 30.2526C20.3296 30.3487 20.1669 30.4004 20 30.4004C19.8332 30.4004 19.6705 30.3487 19.5348 30.2526C19.399 30.1565 19.297 30.0208 19.243 29.8644L19.181 29.4851C18.9499 28.0836 18.4171 26.7476 17.6188 25.5679C16.8204 24.3882 15.7752 23.3924 14.554 22.6479C12.85 21.6081 10.776 21.4873 8.77405 21.4873H0.0240479C0.547048 31.9659 9.29005 40.3034 20 40.3034Z" fill="#0E1534"/>
<path d="M0 19.5066H8.774C10.776 19.5066 12.85 19.3858 14.554 18.3459C15.886 17.5332 17.0073 16.4227 17.828 15.1036C18.878 13.4161 19 11.3622 19 9.37954V0.69043H6C4.4087 0.69043 2.88258 1.31645 1.75736 2.43079C0.632141 3.54512 0 5.05648 0 6.63238L0 19.5066ZM46.455 2.67108C46.455 3.19638 46.2443 3.70017 45.8692 4.07161C45.4941 4.44305 44.9854 4.65173 44.455 4.65173C43.9246 4.65173 43.4159 4.44305 43.0408 4.07161C42.6657 3.70017 42.455 3.19638 42.455 2.67108C42.455 2.14578 42.6657 1.64199 43.0408 1.27055C43.4159 0.899105 43.9246 0.69043 44.455 0.69043C44.9854 0.69043 45.4941 0.899105 45.8692 1.27055C46.2443 1.64199 46.455 2.14578 46.455 2.67108ZM211.711 12.6773C217.302 12.6773 220 16.5445 220 21.0238V29.4366H214.149V22.022C214.149 19.9919 213.401 18.3162 211.256 18.3162C209.111 18.3162 208.396 19.9919 208.396 22.022V29.4356H202.545V22.022C202.545 19.9919 201.83 18.3162 199.684 18.3162C197.539 18.3162 196.791 19.9919 196.791 22.022V29.4356H190.941V21.0228C190.941 16.5435 193.638 12.6763 199.229 12.6763C202.285 12.6763 204.495 13.8687 205.503 15.8345C206.575 13.8687 208.916 12.6753 211.711 12.6753V12.6773ZM180.427 24.28C182.312 24.28 183.125 22.5717 183.125 20.5405V13.321H188.975V21.2496C188.975 25.9873 186.18 29.9199 180.427 29.9199C174.673 29.9199 171.878 25.9883 171.878 21.2496V13.321H177.729V20.5405C177.729 22.5707 178.541 24.28 180.427 24.28ZM163.275 29.9516C159.602 29.9516 157.229 28.6948 155.831 26.2458L160.057 23.8928C160.642 24.9237 161.519 25.4396 162.982 25.4396C164.185 25.4396 164.737 25.0207 164.737 24.5048C164.737 22.539 156.156 24.5375 156.156 18.2855C156.156 15.2551 158.756 12.8061 163.177 12.8061C167.045 12.8061 169.158 14.6748 170.101 16.4802L165.875 18.8649C165.518 17.8983 164.412 17.318 163.307 17.318C162.462 17.318 162.007 17.6725 162.007 18.1558C162.007 20.1543 170.588 18.3172 170.588 24.376C170.588 27.76 167.24 29.9516 163.275 29.9516ZM142.833 36.8492H136.982V21.3466C136.982 16.4148 140.72 12.8378 145.921 12.8378C150.992 12.8378 154.86 16.6733 154.86 21.3466C154.86 26.5032 151.414 29.9199 146.246 29.9199C145.043 29.9199 143.841 29.5653 142.833 29.0167V36.8492ZM145.921 24.4731C147.774 24.4731 149.009 23.0549 149.009 21.3783C149.009 19.671 147.774 18.2845 145.921 18.2845C144.068 18.2845 142.833 19.671 142.833 21.3793C142.833 23.0549 144.068 24.4731 145.921 24.4731ZM131.121 11.6137C129.203 11.6137 127.611 10.0341 127.611 8.13272C127.611 6.2313 129.203 4.65173 131.121 4.65173C133.039 4.65173 134.632 6.2313 134.632 8.13272C134.632 10.0341 133.039 11.6137 131.121 11.6137ZM128.196 13.321H134.047V29.4366H128.196V13.321ZM116.97 29.9199C111.899 29.9199 108.031 26.0526 108.031 21.3466C108.031 16.6733 111.899 12.8061 116.97 12.8061C122.041 12.8061 125.909 16.6733 125.909 21.3466C125.909 26.0526 122.041 29.9199 116.97 29.9199ZM116.97 24.4731C118.823 24.4731 120.058 23.0549 120.058 21.3783C120.058 19.671 118.823 18.2528 116.97 18.2528C115.117 18.2528 113.882 19.671 113.882 21.3783C113.882 23.0549 115.117 24.4731 116.97 24.4731ZM96.983 37.3324C92.953 37.3324 90.027 35.5598 88.532 32.4006L93.375 29.8228C93.895 30.9191 94.87 32.0471 96.885 32.0471C98.999 32.0471 100.396 30.725 100.559 28.4047C99.779 29.0821 98.543 29.597 96.691 29.597C92.172 29.597 88.531 26.1487 88.531 21.3139C88.531 16.6416 92.4 12.8378 97.471 12.8378C102.672 12.8378 106.41 16.4158 106.41 21.3466V27.7283C106.41 33.5296 102.346 37.3324 96.983 37.3324ZM97.373 24.1512C99.128 24.1512 100.461 22.9579 100.461 21.1852C100.461 19.4452 99.129 18.2845 97.373 18.2845C95.65 18.2845 94.285 19.4452 94.285 21.1862C94.285 22.9589 95.65 24.1502 97.373 24.1502V24.1512ZM78.607 29.9199C73.536 29.9199 69.667 26.0526 69.667 21.3466C69.667 16.6733 73.536 12.8061 78.607 12.8061C83.677 12.8061 87.546 16.6733 87.546 21.3466C87.546 26.0526 83.678 29.9199 78.607 29.9199ZM78.607 24.4731C80.46 24.4731 81.695 23.0549 81.695 21.3783C81.695 19.671 80.46 18.2528 78.607 18.2528C76.754 18.2528 75.519 19.671 75.519 21.3783C75.519 23.0549 76.754 24.4731 78.607 24.4731ZM59.013 7.68212V23.9571H68.7V29.4366H58.2C54.495 29.4366 53 27.5025 53 24.4404V7.68212H59.013Z" fill="#0E1534"/>
</g>
<defs>
<clipPath id="clip0_4_309">
<rect width="220" height="39.613" fill="white" transform="translate(0 0.69043)"/>
</clipPath>
</defs>
</svg>
