<svg width="32" height="33" viewBox="0 0 32 33" fill="none" xmlns="http://www.w3.org/2000/svg">
<path d="M16.0268 4.04688C11.6135 4.04688 8.02678 7.63354 8.02678 12.0469V15.9002C8.02678 16.7135 7.68012 17.9535 7.26678 18.6469L5.73345 21.1935C4.78678 22.7669 5.44012 24.5135 7.17345 25.1002C12.9201 27.0202 19.1201 27.0202 24.8668 25.1002C26.4801 24.5669 27.1868 22.6602 26.3068 21.1935L24.7735 18.6469C24.3735 17.9535 24.0268 16.7135 24.0268 15.9002V12.0469C24.0268 7.64688 20.4268 4.04688 16.0268 4.04688Z" stroke="#333333" stroke-width="2" stroke-miterlimit="10" stroke-linecap="round"/>
<circle cx="25.3599" cy="8.08675" r="5.33333" fill="#F23985"/>
<path d="M18.4931 4.43342C18.0798 4.31342 17.6531 4.22008 17.2131 4.16675C15.9331 4.00675 14.7065 4.10008 13.5598 4.43342C13.9465 3.44675 14.9065 2.75342 16.0265 2.75342C17.1465 2.75342 18.1065 3.44675 18.4931 4.43342Z" stroke="#333333" stroke-width="2" stroke-miterlimit="10" stroke-linecap="round" stroke-linejoin="round"/>
<path d="M20.0266 25.5801C20.0266 27.7801 18.2266 29.5801 16.0266 29.5801C14.9333 29.5801 13.9199 29.1267 13.1999 28.4067C12.4799 27.6867 12.0266 26.6734 12.0266 25.5801" stroke="#333333" stroke-width="2" stroke-miterlimit="10"/>
</svg>
