<svg width="224" height="110" viewBox="0 0 224 110" fill="none" xmlns="http://www.w3.org/2000/svg">
<g opacity="0.2">
<path d="M-28.4481 30.7095C-19.028 28.885 21.4473 15.6324 76.3289 37.2104C144.931 64.183 160.131 138.119 282.698 130.169" stroke="white" stroke-width="1.03704"/>
<path d="M-38.5915 69.7303C-29.1715 67.9058 11.3038 54.6532 66.1854 76.2313C134.787 103.204 149.988 177.14 272.555 169.189" stroke="white" stroke-width="1.03704"/>
<path d="M-36.142 60.3394C-26.7219 58.5148 13.7534 45.2623 68.635 66.8403C137.237 93.8129 152.437 167.749 275.004 159.798" stroke="white" stroke-width="1.03704"/>
<path d="M-33.7646 50.9418C-24.2848 48.9653 16.5058 34.9108 71.3874 56.4888C139.989 83.4613 154.455 159.266 277.629 149.772" stroke="white" stroke-width="1.03704"/>
<path d="M-31.0122 40.5854C-21.5622 38.6848 19.0707 25.0313 73.9523 46.6093C142.554 73.5819 157.387 148.452 280.258 139.73" stroke="white" stroke-width="1.03704"/>
</g>
</svg>
