<svg width="37" height="32" viewBox="0 0 37 32" fill="none" xmlns="http://www.w3.org/2000/svg">
<path fill-rule="evenodd" clip-rule="evenodd" d="M23.2965 18.9327H22.113L21.6935 18.5817C23.1617 17.0998 24.0456 15.1758 24.0456 13.0829C24.0456 8.41596 19.686 4.63306 14.3077 4.63306C8.92941 4.63306 4.56982 8.41596 4.56982 13.0829C4.56982 17.7497 8.92941 21.5326 14.3077 21.5326C16.7197 21.5326 18.937 20.7657 20.6448 19.4917L21.0493 19.8557V20.8827L28.54 27.3695L30.7723 25.4325L23.2965 18.9327V18.9327ZM14.3075 18.9329C10.5772 18.9329 7.5659 16.3199 7.5659 13.083C7.5659 9.84609 10.5772 7.23315 14.3075 7.23315C18.0379 7.23315 21.0491 9.84609 21.0491 13.083C21.0491 16.3199 18.0379 18.9329 14.3075 18.9329V18.9329Z" fill="#898989"/>
</svg>
