<svg width="34" height="34" viewBox="0 0 34 34" fill="none" xmlns="http://www.w3.org/2000/svg">
<path d="M5.472 23.252C4.224 23.252 3.174 22.976 2.322 22.424C1.47 21.86 0.87 21.098 0.522 20.138L2.646 18.896C3.138 20.18 4.104 20.822 5.544 20.822C6.24 20.822 6.75 20.696 7.074 20.444C7.398 20.192 7.56 19.874 7.56 19.49C7.56 19.046 7.362 18.704 6.966 18.464C6.57 18.212 5.862 17.942 4.842 17.654C4.278 17.486 3.798 17.318 3.402 17.15C3.018 16.982 2.628 16.76 2.232 16.484C1.848 16.196 1.554 15.836 1.35 15.404C1.146 14.972 1.044 14.468 1.044 13.892C1.044 12.752 1.446 11.846 2.25 11.174C3.066 10.49 4.044 10.148 5.184 10.148C6.204 10.148 7.098 10.4 7.866 10.904C8.646 11.396 9.252 12.086 9.684 12.974L7.596 14.18C7.092 13.1 6.288 12.56 5.184 12.56C4.668 12.56 4.26 12.68 3.96 12.92C3.672 13.148 3.528 13.448 3.528 13.82C3.528 14.216 3.69 14.54 4.014 14.792C4.35 15.032 4.986 15.296 5.922 15.584C6.306 15.704 6.594 15.8 6.786 15.872C6.99 15.932 7.26 16.034 7.596 16.178C7.944 16.31 8.208 16.436 8.388 16.556C8.58 16.676 8.796 16.838 9.036 17.042C9.276 17.246 9.456 17.456 9.576 17.672C9.708 17.888 9.816 18.152 9.9 18.464C9.996 18.764 10.044 19.094 10.044 19.454C10.044 20.618 9.618 21.542 8.766 22.226C7.926 22.91 6.828 23.252 5.472 23.252ZM14.4048 20.624H19.7508V23H11.2368V21.02L16.4748 12.776H11.3628V10.4H19.6428V12.362L14.4048 20.624Z" fill="white"/>
<path d="M24.0826 1.17256C29.9387 3.66903 33.8315 9.7052 34 16.548C34.0061 16.838 33.7948 17.0813 33.5283 17.0913C33.2588 17.0979 33.0382 16.868 33.0291 16.578C32.8729 10.1618 29.222 4.49896 23.7273 2.15581C16.2081 -1.05059 7.69342 2.99575 4.74393 11.1784C1.79444 19.3611 5.51578 28.627 13.035 31.8367C14.9002 32.6333 16.8512 33 18.8359 32.9333C19.1024 32.9233 19.3291 33.1533 19.3352 33.4433C19.3444 33.7333 19.1331 33.9799 18.8635 33.9866C16.7471 34.0599 14.6644 33.6666 12.6766 32.82C4.65818 29.4003 0.691839 19.5177 3.83429 10.7918C6.98286 2.06916 16.0641 -2.24716 24.0826 1.17256Z" fill="url(#paint0_linear_1_1355)"/>
<path d="M27.957 6.60531C28.0183 6.63197 28.0795 6.67196 28.1285 6.72863C31.8223 10.8716 32.9586 17.0211 31.0229 22.3907C28.2939 29.9634 20.4164 33.7098 13.4577 30.74C6.49895 27.7703 3.05633 19.1976 5.7853 11.6249C7.21563 7.65522 10.1529 4.55547 13.8436 3.11559C14.0978 3.0156 14.3735 3.15891 14.4653 3.43556C14.5542 3.70887 14.4255 4.01218 14.1713 4.11217C10.744 5.4454 8.01811 8.32517 6.68885 12.0115C4.1559 19.041 7.35348 27.0037 13.813 29.7601C20.2724 32.5165 27.5895 29.0368 30.1224 22.0074C31.9203 17.0211 30.8636 11.3116 27.4333 7.46523C27.2465 7.25525 27.2526 6.92195 27.4425 6.71863C27.5834 6.56864 27.7855 6.53198 27.957 6.60531Z" fill="url(#paint1_linear_1_1355)"/>
<path d="M22.6368 5.25561C28.5786 7.78874 31.5159 15.1115 29.1881 21.5776C27.7823 25.4773 24.698 28.3571 20.9369 29.2737C20.6735 29.337 20.4162 29.157 20.358 28.8737C20.2998 28.5904 20.4652 28.3071 20.7256 28.2438C24.1712 27.4038 26.9982 24.7674 28.2846 21.1943C30.4163 15.2715 27.7241 8.56535 22.2845 6.24221C16.8419 3.9224 10.6795 6.84883 8.54474 12.7717C8.40079 13.175 8.27522 13.5883 8.17108 14.0049C8.10064 14.2882 7.83416 14.4549 7.57688 14.3782C7.3196 14.3015 7.1634 14.0116 7.23384 13.7316C7.34717 13.2783 7.48196 12.825 7.64122 12.3884C9.9659 5.92223 16.6949 2.72249 22.6368 5.25561Z" fill="url(#paint2_linear_1_1355)"/>
<defs>
<linearGradient id="paint0_linear_1_1355" x1="2.81691" y1="18.2824" x2="33.994" y2="16.0988" gradientUnits="userSpaceOnUse">
<stop offset="0.0051282" stop-color="white" stop-opacity="0"/>
<stop offset="0.0523" stop-color="#FAF8E1" stop-opacity="0.0474"/>
<stop offset="0.1327" stop-color="#F3EFB5" stop-opacity="0.1282"/>
<stop offset="0.2191" stop-color="#ECE68E" stop-opacity="0.2151"/>
<stop offset="0.3103" stop-color="#E7DE6D" stop-opacity="0.3067"/>
<stop offset="0.4077" stop-color="#E3D852" stop-opacity="0.4047"/>
<stop offset="0.5137" stop-color="#DFD43D" stop-opacity="0.5112"/>
<stop offset="0.6324" stop-color="#DDD12F" stop-opacity="0.6305"/>
<stop offset="0.7741" stop-color="#DBCF26" stop-opacity="0.773"/>
<stop offset="1" stop-color="#DBCE24"/>
</linearGradient>
<linearGradient id="paint1_linear_1_1355" x1="4.91271" y1="18.3822" x2="31.9626" y2="16.4876" gradientUnits="userSpaceOnUse">
<stop stop-color="white" stop-opacity="0"/>
<stop offset="0.0038725" stop-color="#FEFEFC" stop-opacity="0.01"/>
<stop offset="0.0636" stop-color="#F7F4CF" stop-opacity="0.0643"/>
<stop offset="0.1274" stop-color="#F1EBA7" stop-opacity="0.1287"/>
<stop offset="0.1973" stop-color="#EBE383" stop-opacity="0.1994"/>
<stop offset="0.2728" stop-color="#E6DD65" stop-opacity="0.2756"/>
<stop offset="0.3556" stop-color="#E2D74D" stop-opacity="0.3593"/>
<stop offset="0.449" stop-color="#DFD33A" stop-opacity="0.4537"/>
<stop offset="0.5588" stop-color="#DDD02D" stop-opacity="0.5646"/>
<stop offset="0.7006" stop-color="#DBCF26" stop-opacity="0.7078"/>
<stop offset="0.9897" stop-color="#DBCE24"/>
</linearGradient>
<linearGradient id="paint2_linear_1_1355" x1="7.49802" y1="17.8266" x2="29.9737" y2="16.2523" gradientUnits="userSpaceOnUse">
<stop stop-color="white" stop-opacity="0"/>
<stop offset="0.033" stop-color="#FDFCF1" stop-opacity="0.0333"/>
<stop offset="0.1729" stop-color="#F4F0BB" stop-opacity="0.1747"/>
<stop offset="0.3143" stop-color="#ECE68D" stop-opacity="0.3176"/>
<stop offset="0.4544" stop-color="#E6DD67" stop-opacity="0.4591"/>
<stop offset="0.5928" stop-color="#E1D749" stop-opacity="0.599"/>
<stop offset="0.7292" stop-color="#DED234" stop-opacity="0.7368"/>
<stop offset="0.8627" stop-color="#DCCF28" stop-opacity="0.8716"/>
<stop offset="0.9898" stop-color="#DBCE24"/>
</linearGradient>
</defs>
</svg>
