<svg width="33" height="33" viewBox="0 0 33 33" fill="none" xmlns="http://www.w3.org/2000/svg">
<path d="M19.3333 18.4999H21.3333V19.4999H19.3333V18.4999ZM23.3333 19.4999H25.3333V18.4999H23.3333V19.4999ZM19.3333 23.4999H21.3333V22.4999H19.3333V23.4999ZM23.3333 23.4999H25.3333V22.4999H23.3333V23.4999ZM19.3333 11.4999H21.3333V10.4999H19.3333V11.4999ZM23.3333 11.4999H25.3333V10.4999H23.3333V11.4999ZM19.3333 15.4999H21.3333V14.4999H19.3333V15.4999ZM23.3333 15.4999H25.3333V14.4999H23.3333V15.4999ZM29.3333 7.99988V29.4999H5.33325V13.8289C5.33325 13.1609 5.59325 12.5329 6.06525 12.0609L8.77225 9.35388C9.85725 8.26888 11.8083 8.26888 12.8933 9.35388L15.3323 11.7929V7.99988C15.3323 6.62188 16.4543 5.49988 17.8323 5.49988H26.8323C28.2103 5.49988 29.3333 6.62188 29.3333 7.99988ZM15.3333 13.8289C15.3333 13.4279 15.1773 13.0519 14.8943 12.7679L12.1873 10.0609C11.4743 9.34788 10.1933 9.34788 9.48025 10.0609L6.77225 12.7679C6.48925 13.0519 6.33325 13.4279 6.33325 13.8289V28.4999H15.3333V13.8289ZM28.3333 7.99988C28.3333 7.17288 27.6603 6.49988 26.8333 6.49988H17.8333C17.0063 6.49988 16.3333 7.17288 16.3333 7.99988V28.4999H28.3333V7.99988ZM9.33325 19.4999H12.3333V18.4999H9.33325V19.4999ZM9.33325 15.4999H12.3333V14.4999H9.33325V15.4999ZM9.33325 23.4999H12.3333V22.4999H9.33325V23.4999Z" fill="#F3BA2F" stroke="#F3BA2F" stroke-width="0.5"/>
</svg>
