<svg width="32" height="32" viewBox="0 0 32 32" fill="none" xmlns="http://www.w3.org/2000/svg">
<path d="M16.4442 15.1261C18.8442 15.1261 20.7108 13.1706 20.7108 10.7706C20.7108 8.37057 18.7553 6.50391 16.3553 6.50391C13.9553 6.50391 12.0886 8.45946 12.0886 10.7706C12.0886 13.1706 14.0442 15.1261 16.4442 15.1261ZM16.3553 8.28168C16.4442 8.28168 16.4442 8.28168 16.3553 8.28168C17.7775 8.28168 18.9331 9.43724 18.9331 10.8595C18.9331 12.2817 17.7775 13.3484 16.3553 13.3484C14.9331 13.3484 13.8664 12.1928 13.8664 10.8595C13.8664 9.43724 15.022 8.28168 16.3553 8.28168Z" fill="#A0AEC0"/>
<path d="M29.5998 14.5929C27.9109 13.0818 25.6887 12.2818 23.3776 12.3707H22.6665C22.4887 13.0818 22.222 13.704 21.8665 14.2374C22.3998 14.1485 22.8442 14.1485 23.3776 14.1485C25.0665 14.0596 26.7553 14.5929 28.0887 15.5707V21.9707H29.8665V14.8596L29.5998 14.5929Z" fill="#A0AEC0"/>
<path d="M21.3331 6.68142C21.7775 5.61476 23.022 5.08142 24.1775 5.52587C25.2442 5.97031 25.7775 7.21476 25.3331 8.37031C24.9775 9.17031 24.1775 9.70365 23.3775 9.70365C23.1997 9.70365 22.9331 9.70365 22.7553 9.61476C22.8442 10.0592 22.8442 10.5036 22.8442 10.8592V11.3925C23.022 11.3925 23.1997 11.4814 23.3775 11.4814C25.5997 11.4814 27.3775 9.70365 27.3775 7.57031C27.3775 5.34809 25.5997 3.57031 23.4664 3.57031C22.0442 3.57031 20.7997 4.28142 20.0886 5.52587C20.5331 5.79253 20.9775 6.14809 21.3331 6.68142Z" fill="#A0AEC0"/>
<path d="M11.2 14.3265C10.8444 13.7932 10.5777 13.1709 10.4 12.4598H9.68884C7.37773 12.3709 5.15551 13.1709 3.46662 14.5932L3.19995 14.8598V21.9709H4.97773V15.5709C6.39995 14.5932 7.99995 14.0598 9.68884 14.1487C10.2222 14.1487 10.7555 14.2376 11.2 14.3265Z" fill="#A0AEC0"/>
<path d="M9.68857 11.393C9.86634 11.393 10.0441 11.393 10.2219 11.3041V10.7708C10.2219 10.3263 10.2219 9.8819 10.3108 9.52635C10.133 9.61523 9.86634 9.61524 9.68857 9.61524C8.53301 9.61524 7.55523 8.63746 7.55523 7.4819C7.55523 6.32635 8.53301 5.34857 9.68857 5.34857C10.5775 5.34857 11.3775 5.8819 11.733 6.6819C12.0886 6.23746 12.6219 5.79301 13.0663 5.43746C11.9108 3.57079 9.51079 2.94857 7.64412 4.10412C5.77746 5.25968 5.15523 7.65968 6.31079 9.52635C7.0219 10.6819 8.26634 11.393 9.68857 11.393Z" fill="#A0AEC0"/>
<path d="M23.7334 19.9265L23.5556 19.6598C21.7778 17.7043 19.2889 16.5487 16.6222 16.6376C13.9556 16.5487 11.3778 17.7043 9.60002 19.6598L9.42224 19.9265V26.682C9.42224 27.482 10.0445 28.1931 10.9334 28.1931H22.3111C23.1111 28.1931 23.8222 27.482 23.8222 26.682V19.9265H23.7334ZM21.9556 26.4154H11.2V20.5487C12.6222 19.1265 14.5778 18.4154 16.6222 18.4154C18.5778 18.3265 20.5334 19.1265 21.9556 20.5487V26.4154Z" fill="#A0AEC0"/>
</svg>
